:SAMPLES-PER-SECOND 24
:FULLY-SPECIFIED
:DEGREES
226
root  -5.80083 39.2722 12.7085 -178.185 77.4727 -173.496
RightUpLeg  -21.0712 -15.641 -4.34105
RightLeg  37.4508 13.4371 10.583
RightFoot  9.82147 -1.2739 7.17224
RightToes  -1.46215e-006 3.27826e-006 1.63871e-007
Spine  8.65144 -0.572966 3.17779
Spine1  -0.190421 -0.31999 -1.09711
HEad  -3.39123 -7.45991 0.0575888
LeftShoulder1  -0.0162274 4.02266 6.0229
LeftArm  -176.039 -66.1411 108.405
LeftForeArm  13.217 -52.6828 -13.7435
LeftHand  -0.787798 2.30218 29.3074
RightShoulder  0.0169076 -3.66798 -17.5355
RightArm  -170.381 70.9122 -85.645
RightForeArm  17.3405 17.0053 3.65184
RightHand  -3.1551 6.89566 -29.4453
LeftUpLeg  2.01979 9.80664 -1.32454
LeftLeg  21.9401 7.55338 3.6684
LeftFoot  -14.1514 0.142284 2.34738
LeftToes  1.24762e-006 1.46925e-008 1.29056e-009
227
root  -5.80468 39.068 12.6674 -177.661 78.1555 -173.185
RightUpLeg  -22.3193 -14.5277 -4.17189
RightLeg  39.0338 12.7797 10.6457
RightFoot  9.17323 -1.18576 6.89399
RightToes  -1.46215e-006 3.27826e-006 1.63871e-007
Spine  8.59297 -0.563269 2.69519
Spine1  0.491531 -0.389589 -0.876236
HEad  -4.12556 -6.90814 0.204743
LeftShoulder1  -0.00291054 3.57853 5.09935
LeftArm  -175.12 -66.7958 108.988
LeftForeArm  14.3413 -53.7881 -14.2559
LeftHand  -0.853167 2.04894 29.3027
RightShoulder  0.00118356 -3.43803 -17.0295
RightArm  -166.134 71.6384 -83.0503
RightForeArm  17.1549 19.1577 3.95546
RightHand  -3.50318 8.46346 -29.0668
LeftUpLeg  0.717489 11.3442 -1.02043
LeftLeg  24.5154 6.38921 3.51658
LeftFoot  -15.3513 0.162889 2.03119
LeftToes  1.24762e-006 1.46925e-008 1.29056e-009
228
root  -5.85719 38.8373 12.6239 -176.966 79.0511 -172.639
RightUpLeg  -23.6421 -12.8187 -4.08892
RightLeg  40.6611 11.9845 10.5721
RightFoot  8.57295 -1.17965 7.04766
RightToes  -1.46215e-006 3.27826e-006 1.63871e-007
Spine  8.60158 -0.376819 2.6728
Spine1  1.22955 -0.139494 -1.21184
HEad  -5.04916 -6.44837 0.285491
LeftShoulder1  0.00765054 3.32514 4.74477
LeftArm  -173.859 -67.407 109.022
LeftForeArm  14.4715 -54.54 -14.6798
LeftHand  -0.954088 1.73489 29.9335
RightShoulder  -0.0151704 -3.14636 -16.1675
RightArm  -162.8 72.4041 -80.6753
RightForeArm  15.9935 20.5022 4.07332
RightHand  -3.93659 11.2388 -27.3065
LeftUpLeg  -0.666505 12.6375 -1.0589
LeftLeg  27.0269 6.53783 3.96162
LeftFoot  -16.6316 0.195754 2.07581
LeftToes  1.24762e-006 1.46925e-008 1.29056e-009
229
root  -5.95215 38.5945 12.5508 -177.151 79.7341 -172.902
RightUpLeg  -24.9016 -11.989 -4.20071
RightLeg  42.3518 11.5692 10.8235
RightFoot  7.99148 -1.12704 6.93105
RightToes  -1.46215e-006 3.27826e-006 1.63871e-007
Spine  8.76877 -0.169648 2.42686
Spine1  1.81101 0.0192137 -0.969192
HEad  -5.94143 -6.11158 -0.00680301
LeftShoulder1  0.0130414 3.22869 4.2316
LeftArm  -173.091 -68.3549 108.498
LeftForeArm  15.3886 -55.8486 -15.4015
LeftHand  -0.981289 1.59749 29.6795
RightShoulder  -0.0362459 -2.69745 -15.4979
RightArm  -158.615 73.5892 -78.2841
RightForeArm  15.5795 23.2375 4.21299
RightHand  -3.93691 11.176 -27.4137
LeftUpLeg  -1.79947 12.6757 -1.569
LeftLeg  29.0691 7.0851 4.60106
LeftFoot  -17.832 0.233115 2.2269
LeftToes  1.24762e-006 1.46925e-008 1.29056e-009
230
root  -6.06687 38.3701 12.4536 -177.234 80.1773 -173.129
RightUpLeg  -26.0002 -11.7973 -4.26405
RightLeg  43.6603 11.2775 11.0387
RightFoot  7.39097 -1.02306 6.50356
RightToes  -1.46215e-006 3.27826e-006 1.63871e-007
Spine  8.85691 -0.060197 2.37435
Spine1  2.21687 0.10636 -0.844483
HEad  -6.45024 -5.72022 -0.232224
LeftShoulder1  0.0220261 3.09207 3.54244
LeftArm  -172.795 -69.3758 108.387
LeftForeArm  16.4982 -57.2881 -16.2473
LeftHand  -1.00375 1.49018 29.5258
RightShoulder  -0.0558137 -2.10557 -14.6192
RightArm  -153.427 74.8434 -75.3464
RightForeArm  16.4725 26.3323 4.77108
RightHand  -3.87159 10.2926 -28.4098
LeftUpLeg  -2.96897 12.269 -2.12632
LeftLeg  31.0258 7.702 5.33511
LeftFoot  -18.9125 0.240606 1.92328
LeftToes  1.24762e-006 1.46925e-008 1.29056e-009
231
root  -6.19387 38.1536 12.3821 -177.102 80.593 -173.208
RightUpLeg  -27.2363 -11.3073 -4.34753
RightLeg  44.9937 10.904 11.1778
RightFoot  6.99246 -0.981659 6.3748
RightToes  -1.46215e-006 3.27826e-006 1.63871e-007
Spine  8.88854 0.0126269 2.40947
Spine1  2.58237 0.237158 -1.08139
HEad  -6.98359 -5.30479 -0.166587
LeftShoulder1  0.0373376 2.83827 3.23224
LeftArm  -171.966 -70.2016 108.221
LeftForeArm  16.7366 -57.8775 -16.6386
LeftHand  -0.989732 1.63307 30.2009
RightShoulder  -0.0617325 -1.44061 -13.3304
RightArm  -148.058 75.9156 -72.0383
RightForeArm  16.6926 28.5498 5.26887
RightHand  -3.92491 10.5353 -28.3694
LeftUpLeg  -4.28776 12.4011 -2.58939
LeftLeg  32.9486 8.22445 6.07009
LeftFoot  -19.9084 0.250786 1.75167
LeftToes  1.24762e-006 1.46925e-008 1.29056e-009
